<svg width="94" height="126" fill="none" xmlns="http://www.w3.org/2000/svg" class="scale-60 md:scale-100"><path d="M74.543 30.567v-5.76c0-11.787-10.33-21.495-23.618-22.825-.24-1.075-1.301-1.91-2.617-1.91h-.991c-1.33 0-2.377.835-2.618 1.91-13.302 1.33-23.618 11.038-23.618 22.825v5.76c-2.221.466-3.48.99-3.48 1.556 0 1.84 13.528 3.326 30.225 3.326 16.698 0 30.226-1.486 30.226-3.326 0-.566-1.273-1.09-3.48-1.556h-.029z" fill="url(#experts_svg__a)"></path><path d="M47.812 40.529c-12.75 0-20.547-.608-25.33-1.472.128.58.213 1.175.368 1.74-1.995 2.095-2.929 5.548-2.377 9.227.707 4.755 3.637 8.307 7.075 8.958 2.434 11.349 10.543 19.443 20.264 19.966 9.736-.523 17.83-8.603 20.264-19.966 3.425-.651 6.354-4.203 7.076-8.958.551-3.693-.383-7.146-2.378-9.226.07-.242.127-.483.176-.725.039-.187.073-.374.107-.56l.003-.017.082-.439c-4.783.864-12.58 1.472-25.33 1.472z" fill="url(#experts_svg__b)"></path><path d="M70.637 99.41l7.84 2.222h.028c.637.184.977.863.736 1.471l-8.222 21.198c-.48 1.231 1.218 2.123 1.953 1.019l20.18-29.985a1.106 1.106 0 00-.61-1.684h-.013l-7.74-2.236a1.105 1.105 0 01-.765-1.373l5.434-19.16c.354-1.231-1.33-1.981-2.01-.891L70.002 97.754a1.109 1.109 0 00.636 1.656z" fill="url(#experts_svg__c)"></path><path d="M64.864 100.669a6.518 6.518 0 004.302 3.934l-.014-.014 3.438.807-.736 1.557c-.48.99-1.457 1.627-2.561 1.627H8.543c-5.56 0-9.55-5.547-7.584-10.755a23.523 23.523 0 0116.358-14.49l13.09-3.255a8.014 8.014 0 016 .863l2.236 1.302a18.186 18.186 0 0018.31 0l2.236-1.302a8.06 8.06 0 016.015-.863l5.759 1.43a1.85 1.85 0 011.118 2.773L65.43 94.868a6.517 6.517 0 00-.566 5.801z" fill="url(#experts_svg__d)"></path><defs><linearGradient id="experts_svg__a" x1="93.344" y1="0.072" x2="-26.852" y2="88.862" gradientUnits="userSpaceOnUse"><stop stop-color="#FC0"></stop><stop offset="1" stop-color="#F63"></stop></linearGradient><linearGradient id="experts_svg__b" x1="93.344" y1="0.072" x2="-26.852" y2="88.862" gradientUnits="userSpaceOnUse"><stop stop-color="#FC0"></stop><stop offset="1" stop-color="#F63"></stop></linearGradient><linearGradient id="experts_svg__c" x1="93.344" y1="0.072" x2="-26.852" y2="88.862" gradientUnits="userSpaceOnUse"><stop stop-color="#FC0"></stop><stop offset="1" stop-color="#F63"></stop></linearGradient><linearGradient id="experts_svg__d" x1="93.344" y1="0.072" x2="-26.852" y2="88.862" gradientUnits="userSpaceOnUse"><stop stop-color="#FC0"></stop><stop offset="1" stop-color="#F63"></stop></linearGradient></defs></svg>