<svg width="113" height="94" fill="none" xmlns="http://www.w3.org/2000/svg" class="scale-60 md:scale-100"><path d="M64.68 15.34c.154-.518.422-.978.748-1.4.729-.958 1.38-.958 1.687-.939.307.019.614.115.614.441v5.215a.543.543 0 01-.218.433.534.534 0 01-.492.085c-.29-.098-.605-.203-.835-.286a3.288 3.288 0 01-.296-.117c-.67-.326-1.188-.94-1.342-1.668a3.014 3.014 0 01-.057-.556c0-.46.076-.844.191-1.208z" fill="url(#payments_svg__a)"></path><path d="M70.375 23.316a.237.237 0 00-.365.21l-.134 5.618c0 .297.159.553.388.693a.763.763 0 00.648.074c.556-.173 1.17-.383 1.438-.556.274-.18.478-.345.631-.518.157-.177.26-.36.327-.575.192-.556.365-1.074.365-1.764a3.58 3.58 0 00-.23-1.284c-.009-.025-.103-.146-.273-.316a5.661 5.661 0 00-1.05-.815c-.518-.326-1.726-.767-1.726-.767h-.02z" fill="url(#payments_svg__b)"></path><path fill-rule="evenodd" clip-rule="evenodd" d="M48.25 21.341c0-11.6 9.413-21.013 21.013-21.013 11.6 0 21.013 9.413 21.013 21.013 0 11.6-9.414 21.013-21.013 21.013-11.6 0-21.014-9.413-21.014-21.013zm26.362 9.912c.844-.613 1.266-1.246 1.668-2.07h.038c.422-.882.614-1.745.614-2.895s-.173-2.033-.614-2.895c-.479-.959-1.188-1.553-1.687-1.898-.517-.345-1.17-.69-1.898-1.036l-.728-.268a2.885 2.885 0 01-.365-.076l-.076-.02-.46-.115a.864.864 0 01-.653-.844V13.48c0-.69.806-1.093 1.381-.69.23.173.46.383.671.652.537.537.844 1.323.959 2.32.038.44.402.786.843.786h1.323c.518 0 .92-.441.863-.94a12.481 12.481 0 00-.345-1.86c-.25-.996-1.016-1.878-1.457-2.32-.614-.613-1.4-.996-2.243-1.418l-.173-.058c-.364-.095-.748-.172-1.131-.249a.845.845 0 01-.71-.844V8.15a.86.86 0 00-.862-.863h-.576a.86.86 0 00-.862.863v.71a.857.857 0 01-.372.717.798.798 0 01-.338.126c-.421.058-.824.173-1.227.269-.843.21-1.668.805-2.128 1.265-.575.575-.978 1.17-1.419 2.032-.422.863-.613 1.707-.613 2.704 0 1.073.21 2.09.613 2.895.345.71.767 1.418 1.496 1.898.594.384 1.208.805 2.051 1.016l1.285.326a.863.863 0 01.652.844v5.79c0 .652-.69 1.055-1.266.767-.402-.192-.747-.46-1.073-.767l-.116-.134c-.555-.748-.862-1.573-.958-2.665a.874.874 0 00-.863-.806h-1.323a.878.878 0 00-.863.94c.192 2.166 1.055 3.643 1.784 4.525.862 1.035 2.396 1.763 4.122 1.994a.84.84 0 01.572.349c.099.14.156.312.156.494v1.055c0 .48.384.862.863.862.48 0 .863-.383.863-.862v-.882c0-.422.307-.786.728-.844a12.31 12.31 0 001.4-.287c.824-.212 1.649-.614 2.454-1.228z" fill="url(#payments_svg__c)"></path><path d="M82.53 62.16l14.253-8.907a5.072 5.072 0 002.332-3.574 1.64 1.64 0 00-1.649-1.86c-4.524.095-7.803.863-12.021 7.266v.038l-3.202 6.788c-.096.192.115.364.288.268v-.019z" fill="url(#payments_svg__d)"></path><path d="M36.765 65.055h-.307l-.02.039a3.003 3.003 0 00-3.01 3.01v16.163a3.003 3.003 0 003.01 3.01h12.655c1.649 0 3.26-.288 4.793-.883l32.978-12.692a16.77 16.77 0 003.815-2.09l21.301-15.587c.633-.48.729-1.4.192-1.994-2.742-2.991-7.228-3.624-10.68-1.477L85.33 62.582a16.608 16.608 0 01-8.705 2.473H55.938l11.561-1.17c2.243-.19 8.033-2.185 8.935-6.058.23-.997-.576-1.917-1.592-1.917h-22.93A7.096 7.096 0 0046.887 58l-4.87 4.87a7.383 7.383 0 01-5.253 2.185z" fill="url(#payments_svg__e)"></path><path d="M26.162 59.648H13.547c-7.42 0-13.422 5.407-13.422 12.06v9.797c0 6.654 6.002 12.06 13.421 12.06h12.616c1.783 0 3.221-1.303 3.221-2.895V62.543c0-1.591-1.438-2.895-3.22-2.895z" fill="url(#payments_svg__f)"></path><defs><linearGradient id="payments_svg__a" x1="112.521" y1="0.328" x2="20.888" y2="110.789" gradientUnits="userSpaceOnUse"><stop stop-color="#FC0"></stop><stop offset="1" stop-color="#F63"></stop></linearGradient><linearGradient id="payments_svg__b" x1="112.521" y1="0.328" x2="20.888" y2="110.789" gradientUnits="userSpaceOnUse"><stop stop-color="#FC0"></stop><stop offset="1" stop-color="#F63"></stop></linearGradient><linearGradient id="payments_svg__c" x1="112.521" y1="0.328" x2="20.888" y2="110.789" gradientUnits="userSpaceOnUse"><stop stop-color="#FC0"></stop><stop offset="1" stop-color="#F63"></stop></linearGradient><linearGradient id="payments_svg__d" x1="112.521" y1="0.328" x2="20.888" y2="110.789" gradientUnits="userSpaceOnUse"><stop stop-color="#FC0"></stop><stop offset="1" stop-color="#F63"></stop></linearGradient><linearGradient id="payments_svg__e" x1="112.521" y1="0.328" x2="20.888" y2="110.789" gradientUnits="userSpaceOnUse"><stop stop-color="#FC0"></stop><stop offset="1" stop-color="#F63"></stop></linearGradient><linearGradient id="payments_svg__f" x1="112.521" y1="0.328" x2="20.888" y2="110.789" gradientUnits="userSpaceOnUse"><stop stop-color="#FC0"></stop><stop offset="1" stop-color="#F63"></stop></linearGradient></defs></svg>