<svg width="124" height="111" fill="none" xmlns="http://www.w3.org/2000/svg" class="scale-60 md:scale-100"><path d="M67.394 59.458c-.29 1.152-.86 2.998-1.526 5.121h3.192c-.833-2.484-1.36-4.066-1.652-5.121h-.014z" fill="url(#protection_svg__a)"></path><path d="M77.221 59.638h2.165c1.25 0 1.874.528 1.874 1.5 0 .97-.541 1.498-1.916 1.498h-2.123v-2.998z" fill="url(#protection_svg__b)"></path><path fill-rule="evenodd" clip-rule="evenodd" d="M64.563 1.331l28.66 9.341a7.77 7.77 0 015.372 7.398v32.7c0 14.309-6.718 27.8-18.14 36.432L66.839 97.487a7.786 7.786 0 01-9.382 0L43.84 87.203A45.66 45.66 0 0125.7 50.769v-32.7a7.77 7.77 0 015.371-7.397l28.661-9.34a7.764 7.764 0 014.83 0zm4.275 38.196c.652-1.68 1.72-2.845 4.358-2.845v-.014c3.276 0 4.358 1.985 4.358 5.094s-1.43 5.26-4.358 5.26c-2.415 0-3.761-1.25-4.317-3.192h-6.162c.653 5.052 4.747 7.939 10.354 7.939 7.675 0 10.701-5.122 10.701-10.52 0-5.4-3.15-9.453-8.758-9.453-2.456 0-4.053.653-5.135 1.513.208-1.152.694-3.872.86-5.385H82.12l.86-5.052H65.73c-.472 3.886-1.68 12.339-2.457 15.92l5.566.735zM47.206 64.843a.607.607 0 00.022-.056l4.094-7.161h-2.65c-.875 1.68-2.152 4.163-2.665 5.385a205.6 205.6 0 00-2.665-5.385h-2.873l4.052 7.19a.66.66 0 01.098.374v4.15h2.526v-4.178c0-.182.033-.257.06-.32zm5.032 4.497h8.342l.014-.014.305-2.068h-6.19v-2.97h5.607v-2.096h-5.607v-2.498h5.843v-2.068h-8.314V69.34zM40.594 51.255h20.055v-.028l.777-5.135H47.964c.471-1.29 1.887-2.928 5.385-5.385 5.218-3.664 7.036-5.566 7.036-9.785 0-4.22-2.498-8.577-9.785-8.577-6.55 0-9.743 4.094-10.131 8.966h5.954c.389-2.457 1.374-4.178 4.177-4.178 2.374 0 3.581 1.346 3.581 3.845 0 2.498-1.207 3.497-5.218 6.426-6.177 4.496-8.37 8.508-8.37 13.462v.39zm28.993 15.378l.972 2.707h2.665L69.06 57.626h-3.178L61.898 69.34h2.498l.903-2.707h4.288zm13.977.486v-.583l-.014.014c0-2.11-.874-2.706-1.457-2.928.86-.361 1.707-1.208 1.707-2.776 0-1.832-1.374-3.22-3.928-3.22h-5.15V69.34h2.485v-4.691h1.666c1.887 0 2.206.61 2.206 1.887v.167c0 1.249.028 2.123.236 2.637h2.415c-.166-.541-.166-1.444-.166-2.22z" fill="url(#protection_svg__c)"></path><path d="M19.775 50.728V22.4c0-1.152-1.125-1.943-2.207-1.596L5.882 24.607a7.267 7.267 0 00-5.01 6.912v30.548a42.668 42.668 0 0016.946 34.046l12.727 9.605a7.266 7.266 0 008.758 0l8.05-6.08a1.693 1.693 0 000-2.692l-7.328-5.538C27.339 81.831 19.76 66.62 19.76 50.728h.014z" fill="url(#protection_svg__d)"></path><path d="M118.401 28.382l-11.673-3.803c-1.082-.36-2.207.458-2.207 1.596v24.539a50.943 50.943 0 01-20.263 40.68l-9.827 7.425a1.694 1.694 0 000 2.693l10.562 7.967a7.266 7.266 0 008.758 0l12.727-9.605a42.666 42.666 0 0016.947-34.046V35.294c0-3.15-2.026-5.94-5.01-6.912h-.014z" fill="url(#protection_svg__e)"></path><defs><linearGradient id="protection_svg__a" x1="123.425" y1="0.946" x2="14.064" y2="122.788" gradientUnits="userSpaceOnUse"><stop stop-color="#FC0"></stop><stop offset="1" stop-color="#F63"></stop></linearGradient><linearGradient id="protection_svg__b" x1="123.425" y1="0.946" x2="14.064" y2="122.788" gradientUnits="userSpaceOnUse"><stop stop-color="#FC0"></stop><stop offset="1" stop-color="#F63"></stop></linearGradient><linearGradient id="protection_svg__c" x1="123.425" y1="0.946" x2="14.064" y2="122.788" gradientUnits="userSpaceOnUse"><stop stop-color="#FC0"></stop><stop offset="1" stop-color="#F63"></stop></linearGradient><linearGradient id="protection_svg__d" x1="123.425" y1="0.946" x2="14.064" y2="122.788" gradientUnits="userSpaceOnUse"><stop stop-color="#FC0"></stop><stop offset="1" stop-color="#F63"></stop></linearGradient><linearGradient id="protection_svg__e" x1="123.425" y1="0.946" x2="14.064" y2="122.788" gradientUnits="userSpaceOnUse"><stop stop-color="#FC0"></stop><stop offset="1" stop-color="#F63"></stop></linearGradient></defs></svg>