<svg width="111" height="111" fill="none" xmlns="http://www.w3.org/2000/svg" class="scale-60 md:scale-100"><path d="M103.488 44.801c-.309-1.41.071-3.087.617-4.8.605-1.909-1.555-3.489-3.11-2.249l-2.67 2.115a2.089 2.089 0 00-.665 2.26c1.745 5.518 2.469 11.498 1.947 17.72-1.84 21.999-19.49 39.598-41.02 40.898-25.79 1.568-47.13-19.713-46.513-45.917.534-23.092 18.527-42.283 41.042-43.717 15.062-.96 28.604 5.883 37.174 16.942.664.863 1.898.997 2.753.328l.771-.607c.914-.717.974-2.042.25-2.954h-.012c-2.421-3.123-.807-10.427-3.846-12.907-3.026-2.467-9.613.766-13.127-.972-3.465-1.714-5.091-9.018-8.925-9.905-3.715-.863-8.272 4.97-12.236 4.97-3.965 0-8.522-5.846-12.237-4.97-3.834.887-5.46 8.203-8.926 9.905-3.513 1.738-10.112-1.495-13.127.972-3.038 2.48-1.412 9.784-3.845 12.895-2.41 3.1-9.732 3.1-11.43 6.697C4.68 35.054 9.226 40.9 8.36 44.825 7.517 48.63.917 51.876.917 55.947c0 4.072 6.6 7.317 7.442 11.121.867 3.926-3.667 9.784-2.006 13.32 1.698 3.598 9.02 3.598 11.43 6.697 2.421 3.112.807 10.416 3.845 12.895 3.027 2.468 9.614-.765 13.127.973 3.466 1.713 5.092 9.018 8.926 9.905 3.715.863 8.272-4.971 12.236-4.971 3.965 0 8.522 5.846 12.237 4.971 3.834-.887 5.46-8.204 8.925-9.905 3.514-1.738 10.113 1.495 13.127-.973 3.039-2.479 1.413-9.783 3.846-12.895 2.41-3.099 9.732-3.099 11.43-6.697 1.673-3.548-2.873-9.394-2.006-13.32.842-3.804 7.441-7.05 7.441-11.12 0-4.072-6.599-7.317-7.441-11.121l.012-.025z" fill="url(#technology_svg__a)"></path><path d="M55.93 17.042c-21.851 0-39.393 18.911-37.862 41.627 1.294 19.166 16.45 34.699 35.179 36.023 22.183 1.568 40.65-16.395 40.65-38.77 0-2.273-.19-4.485-.557-6.648-.368-2.164-2.908-3.136-4.617-1.787L53.757 75.21a3.887 3.887 0 01-5.46-.608L33.926 56.955c-1.4-1.714-1.175-4.278.498-5.712l3.216-2.747a3.903 3.903 0 015.579.51l7.88 9.687a2.31 2.31 0 003.24.365l30.16-23.919c1.293-1.02 1.519-2.953.462-4.23-6.967-8.47-17.387-13.855-29.042-13.855l.011-.012z" fill="url(#technology_svg__b)"></path><defs><linearGradient id="technology_svg__a" x1="110.917" y1="0.946" x2="0.917" y2="110.946" gradientUnits="userSpaceOnUse"><stop stop-color="#FC0"></stop><stop offset="1" stop-color="#F63"></stop></linearGradient><linearGradient id="technology_svg__b" x1="110.917" y1="0.946" x2="0.917" y2="110.946" gradientUnits="userSpaceOnUse"><stop stop-color="#FC0"></stop><stop offset="1" stop-color="#F63"></stop></linearGradient></defs></svg>